<svg width="221" height="147" viewBox="0 0 221 147" fill="none" xmlns="http://www.w3.org/2000/svg">
<path d="M192.832 80.4191C187.908 79.5867 182.211 80.2568 178.577 76.8334C175.593 74.021 175.202 69.3507 176.072 65.3431C176.943 61.3354 178.843 57.6122 179.769 53.6179C182.919 40.031 172.334 24.9091 158.489 23.2194C141.762 21.1783 125.802 36.0253 109.404 32.1398C101.175 30.1884 94.6299 23.7865 86.5247 21.3654C78.5342 18.9788 69.7895 20.7449 62.2304 24.2695C43.1505 33.1651 30.1594 53.7782 30.3637 74.8286C30.4229 80.8659 31.3718 87.3615 28.3092 92.5663C24.672 98.7487 16.8303 100.744 10.9725 104.883C4.41395 109.523 0.22679 117.348 0.00912662 125.376C-0.210446 133.405 3.54521 141.447 9.84027 146.432L197.707 147.003C205.839 136.3 213.224 124.158 213.835 110.73C214.444 97.3014 206.087 82.6607 192.832 80.4191Z" fill="#EBEEFF"/>
<path d="M199.961 118.537C201.878 114.088 195.108 113.449 192.652 114.72C193.414 112.738 194.325 110.825 195.382 109.017C197.17 110.294 198.747 112.131 200.774 112.906C205.649 113.758 204.059 105.418 195.711 108.463C196.813 106.64 198.052 104.92 199.417 103.329C201.263 104.54 202.915 106.325 204.983 107.024C209.857 107.623 208.018 99.5926 199.98 102.686C201.292 101.227 202.705 99.879 204.219 98.6781C206.132 99.8409 207.864 101.597 209.987 102.239C214.779 102.638 212.904 94.9892 205.208 97.9163C206.409 97.0303 207.661 96.2284 208.958 95.52C211.098 95.5506 213.336 96.1883 215.432 95.6499C218.518 94.4718 216.74 90.5214 213.901 91.2603C211.904 91.7988 209.949 93.225 208.868 95.1401C207.48 95.8885 206.145 96.7516 204.87 97.7043C209.292 89.9811 202.756 86.2846 202.111 91.5315C202.227 93.9028 203.409 96.0947 204.034 98.3516C202.508 99.5659 201.076 100.92 199.751 102.392C202.47 93.5611 195.188 91.6365 195.761 96.9654C196.41 99.2375 198.044 101.046 199.155 103.07C197.781 104.67 196.536 106.403 195.426 108.236C195.896 106.1 195.539 103.616 194.575 101.66C193.156 98.8289 189.332 100.022 190.624 103.354C191.703 105.477 193.668 106.915 195.155 108.689C195.14 108.714 195.127 108.738 195.111 108.765H195.073C195.083 108.773 195.09 108.778 195.1 108.786C194.08 110.537 193.187 112.378 192.436 114.289C190.678 104.952 183.461 107.35 186.432 111.746C188.003 113.389 190.246 114.012 192.087 115.213C191.896 115.65 189.559 122.86 190.64 121.93C191.039 119.711 191.623 117.542 192.379 115.448C194.521 116.784 197.498 121.027 199.961 118.537Z" fill="#9AAD2E"/>
<path d="M19.7517 122.35C17.8347 117.901 24.6052 117.262 27.0606 118.533C26.2988 116.551 25.388 114.638 24.3302 112.83C22.5431 114.107 20.966 115.944 18.9383 116.719C14.0638 117.571 15.6542 109.231 24.0018 112.276C22.9001 110.453 21.661 108.733 20.2958 107.142C18.4495 108.353 16.7979 110.138 14.7301 110.837C9.85559 111.436 11.6943 103.406 19.7326 106.499C18.4209 105.04 17.0079 103.692 15.4938 102.491C13.5807 103.654 11.8489 105.41 9.72576 106.052C4.93334 106.451 6.8083 98.8021 14.5048 101.729C13.3038 100.843 12.0513 100.041 10.7549 99.3329C8.61453 99.3635 6.37679 100.001 4.28034 99.4627C1.19486 98.2847 2.97245 94.3343 5.81163 95.0732C7.80879 95.6116 9.76394 97.0379 10.8446 98.953C12.2327 99.7014 13.5673 100.564 14.8428 101.517C10.4208 93.7939 16.9564 90.0975 17.6017 95.3443C17.4853 97.7157 16.3034 99.9076 15.6791 102.164C17.2046 103.379 18.6366 104.732 19.9617 106.205C17.2428 97.3739 24.525 95.4493 23.9522 100.778C23.303 103.05 21.6686 104.859 20.5574 106.882C21.9321 108.482 23.177 110.216 24.2863 112.049C23.8166 109.913 24.1737 107.428 25.1379 105.473C26.5565 102.642 30.3809 103.835 29.0883 107.167C28.0095 109.29 26.0448 110.728 24.5574 112.502C24.5727 112.526 24.5861 112.551 24.6014 112.578H24.6395C24.63 112.586 24.6224 112.591 24.6128 112.599C25.6324 114.35 26.526 116.19 27.2763 118.102C29.0348 108.765 36.2521 111.163 33.2812 115.558C31.7098 117.202 29.4663 117.825 27.6257 119.026C27.8186 119.463 30.1537 126.673 29.073 125.743C28.674 123.524 28.0897 121.355 27.3317 119.261C25.1933 120.599 22.2147 124.84 19.7517 122.35Z" fill="#9AAD2E"/>
<path d="M193.129 86.0097H175.758V72.2128L193.129 78.4563V86.0097Z" fill="#22C2F0"/>
<path d="M175.758 72.4115V74.4965L193.129 80.444V78.4564L175.8 72.2263L175.758 72.4115Z" fill="#0DA5D3"/>
<path d="M175.154 71.187L174.586 72.8472L193.738 79.3951L194.305 77.7349L175.154 71.187Z" fill="#512691"/>
<path d="M195.78 84.2435H96.2812V145.058H195.78V84.2435Z" fill="#FF595A"/>
<path d="M96.2812 84.2435V86.8669H118.414V145.059H173.647V86.8669H195.78V84.2435H96.2812Z" fill="#FF595A"/>
<path d="M198.714 82.588H93.3477V85.0472H198.714V82.588Z" fill="#512691"/>
<path d="M171.772 62.5764H120.297V145.059H171.772V62.5764Z" fill="#22C2F0"/>
<path d="M173.647 60.8217H118.414V62.5764H173.647V60.8217Z" fill="#512691"/>
<path d="M135.87 60.8216H134.243V57.4402H131.072V60.8216H129.445V52.9304H131.072V56.1285H134.243V52.9304H135.87V60.8216Z" fill="#FF595A"/>
<path d="M144.125 57.0508C144.125 57.8069 143.992 58.4694 143.724 59.0403C143.457 59.6093 143.075 60.0504 142.577 60.3597C142.079 60.669 141.51 60.8236 140.866 60.8236C140.23 60.8236 139.661 60.6709 139.163 60.3654C138.663 60.0599 138.277 59.6227 138.002 59.0537C137.727 58.4866 137.59 57.8317 137.586 57.0947V56.7148C137.586 55.9587 137.722 55.2923 137.995 54.7176C138.268 54.1429 138.651 53.7018 139.15 53.3944C139.648 53.087 140.217 52.9324 140.857 52.9324C141.496 52.9324 142.065 53.087 142.564 53.3944C143.062 53.7018 143.446 54.1429 143.719 54.7176C143.992 55.2923 144.127 55.9568 144.127 56.709V57.0508H144.125ZM142.522 56.7014C142.522 55.8957 142.376 55.2847 142.088 54.8665C141.8 54.4484 141.387 54.2384 140.855 54.2384C140.324 54.2384 139.913 54.4446 139.625 54.8589C139.337 55.2713 139.192 55.8785 139.188 56.6766V57.0508C139.188 57.8355 139.331 58.4427 139.621 58.8761C139.91 59.3076 140.324 59.5253 140.866 59.5253C141.397 59.5253 141.806 59.3172 142.09 58.9009C142.375 58.4847 142.52 57.8775 142.523 57.0775V56.7014H142.522Z" fill="#FF595A"/>
<path d="M151.319 54.2478H148.902V60.8216H147.275V54.2478H144.891V52.9304H151.319V54.2478Z" fill="#FF595A"/>
<path d="M157.442 57.402H154.32V59.5156H157.984V60.8216H152.695V52.9304H157.975V54.2478H154.322V56.1285H157.444V57.402H157.442Z" fill="#FF595A"/>
<path d="M161.006 59.5156H164.458V60.8216H159.379V52.9304H161.006V59.5156Z" fill="#FF595A"/>
<path d="M131.38 68.4438H124.457V78.2635H131.38V68.4438Z" fill="#805FC2"/>
<path d="M128.083 73.1883V68.1878H127.75V73.1883H124.188V73.5187H127.75V78.4657H128.083V73.5187H131.645V73.1883H128.083Z" fill="white"/>
<path d="M124.125 68.1115V78.5937H131.713V68.1115H124.125ZM131.38 78.2634H124.457V68.4437H131.38V78.2634Z" fill="white"/>
<path d="M143.454 68.4438H136.531V78.2635H143.454V68.4438Z" fill="#805FC2"/>
<path d="M140.161 73.1884V68.1879H139.83V73.1884H136.266V73.5187H139.83V78.4658H140.161V73.5187H143.725V73.1884H140.161Z" fill="white"/>
<path d="M136.203 68.1115V78.5937H143.791V68.1115H136.203ZM143.459 78.2634H136.535V68.4437H143.459V78.2634Z" fill="white"/>
<path d="M155.537 68.4438H148.613V78.2635H155.537V68.4438Z" fill="#805FC2"/>
<path d="M152.239 73.1883V68.1878H151.907V73.1883H148.344V73.5187H151.907V78.4657H152.239V73.5187H155.802V73.1883H152.239Z" fill="white"/>
<path d="M148.281 68.1115V78.5937H155.869V68.1115H148.281ZM155.537 78.2634H148.613V68.4437H155.537V78.2634Z" fill="white"/>
<path d="M167.619 68.4438H160.695V78.2635H167.619V68.4438Z" fill="#805FC2"/>
<path d="M164.321 73.1885V68.1879H163.989V73.1885H160.426V73.5188H163.989V78.4659H164.321V73.5188H167.884V73.1885H164.321Z" fill="white"/>
<path d="M160.363 68.1115V78.5937H167.951V68.1115H160.363ZM167.617 78.2634H160.694V68.4437H167.617V78.2634Z" fill="white"/>
<path d="M131.38 83.2508H124.457V93.0705H131.38V83.2508Z" fill="#805FC2"/>
<path d="M128.083 87.9934V82.9948H127.75V87.9934H124.188V88.3257H127.75V93.2727H128.083V88.3257H131.645V87.9934H128.083Z" fill="white"/>
<path d="M124.125 82.9185V93.4007H131.713V82.9185H124.125ZM131.38 93.0704H124.457V83.2507H131.38V93.0704Z" fill="white"/>
<path d="M143.454 83.2508H136.531V93.0705H143.454V83.2508Z" fill="#805FC2"/>
<path d="M140.161 87.9935V82.9949H139.83V87.9935H136.266V88.3257H139.83V93.2728H140.161V88.3257H143.725V87.9935H140.161Z" fill="white"/>
<path d="M136.203 82.9185V93.4007H143.791V82.9185H136.203ZM143.459 93.0704H136.535V83.2507H143.459V93.0704Z" fill="white"/>
<path d="M155.537 83.2508H148.613V93.0705H155.537V83.2508Z" fill="#805FC2"/>
<path d="M152.239 87.9934V82.9948H151.907V87.9934H148.344V88.3257H151.907V93.2727H152.239V88.3257H155.802V87.9934H152.239Z" fill="white"/>
<path d="M148.281 82.9185V93.4007H155.869V82.9185H148.281ZM155.537 93.0704H148.613V83.2507H155.537V93.0704Z" fill="white"/>
<path d="M167.619 83.2508H160.695V93.0705H167.619V83.2508Z" fill="#805FC2"/>
<path d="M164.321 87.9935V82.9949H163.989V87.9935H160.426V88.3257H163.989V93.2728H164.321V88.3257H167.884V87.9935H164.321Z" fill="white"/>
<path d="M160.363 82.9185V93.4007H167.951V82.9185H160.363ZM167.617 93.0704H160.694V83.2507H167.617V93.0704Z" fill="white"/>
<path d="M131.38 98.0576H124.457V107.877H131.38V98.0576Z" fill="#805FC2"/>
<path d="M128.083 102.8V97.8016H127.75V102.8H124.188V103.132H127.75V108.08H128.083V103.132H131.645V102.8H128.083Z" fill="white"/>
<path d="M124.125 97.7253V108.208H131.713V97.7253H124.125ZM131.38 107.877H124.457V98.0576H131.38V107.877Z" fill="white"/>
<path d="M143.454 98.0576H136.531V107.877H143.454V98.0576Z" fill="#805FC2"/>
<path d="M140.161 102.8V97.8017H139.83V102.8H136.266V103.133H139.83V108.08H140.161V103.133H143.725V102.8H140.161Z" fill="white"/>
<path d="M136.203 97.7253V108.208H143.791V97.7253H136.203ZM143.459 107.877H136.535V98.0576H143.459V107.877Z" fill="white"/>
<path d="M155.537 98.0576H148.613V107.877H155.537V98.0576Z" fill="#805FC2"/>
<path d="M152.239 102.8V97.8016H151.907V102.8H148.344V103.132H151.907V108.08H152.239V103.132H155.802V102.8H152.239Z" fill="white"/>
<path d="M148.281 97.7253V108.208H155.869V97.7253H148.281ZM155.537 107.877H148.613V98.0576H155.537V107.877Z" fill="white"/>
<path d="M167.619 98.0576H160.695V107.877H167.619V98.0576Z" fill="#805FC2"/>
<path d="M164.321 102.8V97.8017H163.989V102.8H160.426V103.133H163.989V108.08H164.321V103.133H167.884V102.8H164.321Z" fill="white"/>
<path d="M160.363 97.7253V108.208H167.951V97.7253H160.363ZM167.617 107.877H160.694V98.0576H167.617V107.877Z" fill="white"/>
<path d="M145.341 124.265V144.54H131.406V134.068H136.96V133.38H131.406V124.265H145.341Z" fill="#805FC2"/>
<path d="M154.505 124.265H145.77V144.54H154.505V124.265Z" fill="#805FC2"/>
<path d="M160.654 124.265H154.93V133.38H160.654V124.265Z" fill="#805FC2"/>
<path d="M160.654 134.068H154.93V144.54H160.654V134.068Z" fill="#805FC2"/>
<path d="M160.657 120.781H131.406V123.578H160.657V120.781Z" fill="#805FC2"/>
<path d="M147.201 133.325H146.773V136.122H147.201V133.325Z" fill="white"/>
<path d="M144.334 133.235H143.906V136.032H144.334V133.235Z" fill="white"/>
<path d="M137.391 124.265H136.961V144.54H137.391V124.265Z" fill="white"/>
<path d="M130.797 120.173V145.059H161.27V120.173H130.797ZM145.34 144.54H131.408V134.067H136.962V133.38H131.408V124.267H145.34V144.54ZM154.505 144.54H145.77V124.265H154.505V144.54ZM160.659 144.54H154.935V134.067H160.659V144.54ZM160.659 133.38H154.935V124.267H160.659V133.38ZM160.659 123.578H131.408V120.78H160.659V123.578Z" fill="white"/>
<path d="M182.06 89.4865H175.137V99.3062H182.06V89.4865Z" fill="#805FC2"/>
<path d="M178.762 94.2311V89.2325H178.43V94.2311H174.867V94.5633H178.43V99.5104H178.762V94.5633H182.325V94.2311H178.762Z" fill="white"/>
<path d="M174.805 89.1562V99.6384H182.392V89.1562H174.805ZM182.06 99.3081H175.137V89.4884H182.06V99.3081Z" fill="white"/>
<path d="M192.88 89.4865H185.957V99.3062H192.88V89.4865Z" fill="#805FC2"/>
<path d="M189.583 94.2311V89.2325H189.25V94.2311H185.688V94.5633H189.25V99.5104H189.583V94.5633H193.145V94.2311H189.583Z" fill="white"/>
<path d="M185.625 89.1562V99.6384H193.213V89.1562H185.625ZM192.88 99.3081H185.957V89.4884H192.88V99.3081Z" fill="white"/>
<path d="M182.06 107.875H175.137V117.695H182.06V107.875Z" fill="#805FC2"/>
<path d="M178.762 112.62V107.619H178.43V112.62H174.867V112.952H178.43V117.897H178.762V112.952H182.325V112.62H178.762Z" fill="white"/>
<path d="M174.805 107.545V118.027H182.392V107.545H174.805ZM182.06 117.695H175.137V107.875H182.06V117.695Z" fill="white"/>
<path d="M192.88 107.875H185.957V117.695H192.88V107.875Z" fill="#805FC2"/>
<path d="M189.583 112.62V107.619H189.25V112.62H185.688V112.952H189.25V117.897H189.583V112.952H193.145V112.62H189.583Z" fill="white"/>
<path d="M185.625 107.545V118.027H193.213V107.545H185.625ZM192.88 117.695H185.957V107.875H192.88V117.695Z" fill="white"/>
<path d="M182.06 126.264H175.137V136.084H182.06V126.264Z" fill="#805FC2"/>
<path d="M178.762 131.009V126.008H178.43V131.009H174.867V131.339H178.43V136.286H178.762V131.339H182.325V131.009H178.762Z" fill="white"/>
<path d="M174.805 125.932V136.414H182.392V125.932H174.805ZM182.06 136.084H175.137V126.264H182.06V136.084Z" fill="white"/>
<path d="M192.88 126.264H185.957V136.084H192.88V126.264Z" fill="#805FC2"/>
<path d="M189.583 131.009V126.008H189.25V131.009H185.688V131.339H189.25V136.286H189.583V131.339H193.145V131.009H189.583Z" fill="white"/>
<path d="M185.625 125.932V136.414H193.213V125.932H185.625ZM192.88 136.084H185.957V126.264H192.88V136.084Z" fill="white"/>
<path d="M106.111 89.4865H99.1875V99.3062H106.111V89.4865Z" fill="#805FC2"/>
<path d="M102.809 94.2312V89.2326H102.477V94.2312H98.9141V94.5635H102.477V99.5105H102.809V94.5635H106.372V94.2312H102.809Z" fill="white"/>
<path d="M98.8516 89.1562V99.6384H106.439V89.1562H98.8516ZM106.107 99.3081H99.1838V89.4884H106.107V99.3081Z" fill="white"/>
<path d="M116.931 89.4865H110.008V99.3062H116.931V89.4865Z" fill="#805FC2"/>
<path d="M113.633 94.2312V89.2325H113.303V94.2312H109.738V94.5634H113.303V99.5105H113.633V94.5634H117.198V94.2312H113.633Z" fill="white"/>
<path d="M109.676 89.1562V99.6384H117.263V89.1562H109.676ZM116.929 99.3081H110.006V89.4884H116.929V99.3081Z" fill="white"/>
<path d="M106.111 107.875H99.1875V117.695H106.111V107.875Z" fill="#805FC2"/>
<path d="M102.809 112.62V107.62H102.477V112.62H98.9141V112.952H102.477V117.897H102.809V112.952H106.372V112.62H102.809Z" fill="white"/>
<path d="M98.8516 107.545V118.027H106.439V107.545H98.8516ZM106.107 117.695H99.1838V107.875H106.107V117.695Z" fill="white"/>
<path d="M116.931 107.875H110.008V117.695H116.931V107.875Z" fill="#805FC2"/>
<path d="M113.633 112.62V107.619H113.303V112.62H109.738V112.952H113.303V117.897H113.633V112.952H117.198V112.62H113.633Z" fill="white"/>
<path d="M109.676 107.545V118.027H117.263V107.545H109.676ZM116.929 117.695H110.006V107.875H116.929V117.695Z" fill="white"/>
<path d="M106.111 126.264H99.1875V136.084H106.111V126.264Z" fill="#805FC2"/>
<path d="M102.809 131.009V126.008H102.477V131.009H98.9141V131.339H102.477V136.286H102.809V131.339H106.372V131.009H102.809Z" fill="white"/>
<path d="M98.8516 125.932V136.414H106.439V125.932H98.8516ZM106.107 136.084H99.1838V126.264H106.107V136.084Z" fill="white"/>
<path d="M116.931 126.264H110.008V136.084H116.931V126.264Z" fill="#805FC2"/>
<path d="M113.633 131.009V126.008H113.303V131.009H109.738V131.339H113.303V136.286H113.633V131.339H117.198V131.009H113.633Z" fill="white"/>
<path d="M109.676 125.932V136.414H117.263V125.932H109.676ZM116.929 136.084H110.006V126.264H116.929V136.084Z" fill="white"/>
<path d="M131.372 98.0576H124.449V107.877H131.372V98.0576Z" fill="#805FC2"/>
<path d="M128.075 102.8V97.8016H127.743V102.8H124.18V103.132H127.743V108.08H128.075V103.132H131.638V102.8H128.075Z" fill="white"/>
<path d="M124.117 97.7253V108.208H131.705V97.7253H124.117ZM131.373 107.877H124.449V98.0575H131.373V107.877Z" fill="white"/>
<path d="M143.447 98.0576H136.523V107.877H143.447V98.0576Z" fill="#805FC2"/>
<path d="M140.153 102.8V97.8016H139.823V102.8H136.258V103.132H139.823V108.08H140.153V103.132H143.718V102.8H140.153Z" fill="white"/>
<path d="M136.195 97.7253V108.208H143.783V97.7253H136.195ZM143.451 107.877H136.528V98.0575H143.451V107.877Z" fill="white"/>
<path d="M155.529 98.0576H148.605V107.877H155.529V98.0576Z" fill="#805FC2"/>
<path d="M152.231 102.8V97.8016H151.899V102.8H148.336V103.132H151.899V108.08H152.231V103.132H155.794V102.8H152.231Z" fill="white"/>
<path d="M148.273 97.7253V108.208H155.861V97.7253H148.273ZM155.529 107.877H148.606V98.0575H155.529V107.877Z" fill="white"/>
<path d="M167.611 98.0576H160.688V107.877H167.611V98.0576Z" fill="#805FC2"/>
<path d="M164.313 102.8V97.8016H163.981V102.8H160.418V103.132H163.981V108.08H164.313V103.132H167.876V102.8H164.313Z" fill="white"/>
<path d="M160.355 97.7253V108.208H167.943V97.7253H160.355ZM167.609 107.877H160.686V98.0575H167.609V107.877Z" fill="white"/>
<path d="M171.772 62.5764H120.297V64.627H171.772V62.5764Z" fill="#0DA5D3"/>
<path d="M171.772 114.235H120.297V116.286H171.772V114.235Z" fill="#0DA5D3"/>
<path d="M173.647 112.935H118.414V114.69H173.647V112.935Z" fill="#512691"/>
<path d="M197.971 145.06H94.0938V146.054H197.971V145.06Z" fill="#512691"/>
<path d="M97.7628 74.7543C96.9933 74.9185 96.199 75.0731 95.378 75.2125L95.3895 75.266L96.1646 78.6703L96.5293 80.2837L97.5126 84.6122L98.1962 87.6213L98.4291 88.6447L98.5628 89.2308L99.0153 91.2184L100.627 98.3097L100.799 99.0658L101.247 101.044L104.904 98.7527L105.654 98.283L106.593 97.6949L107.057 97.4047L108.264 96.6486L108.266 96.6505C108.276 96.6715 108.375 96.8491 108.52 97.1374C108.934 97.9546 109.734 99.6615 110.036 101.202C110.212 102.1 110.023 103.436 109.415 105.084C108.919 106.432 108.142 107.988 107.059 109.685C106.626 110.361 106.145 111.06 105.612 111.778C105.075 112.502 104.486 113.243 103.846 113.995C103.145 114.816 102.385 115.652 101.557 116.5C99.4926 118.612 97.0162 120.786 94.0968 122.929C87.1526 128.023 78.2952 132.762 67.7232 135.702C66.5719 136.023 65.4741 136.475 64.4468 137.05C62.7876 137.972 61.3194 139.204 60.126 140.682V140.683C59.5952 141.338 59.1198 142.045 58.7055 142.793L56.6319 145.904H7.46094C14.4376 138.421 24.2287 127.591 28.9447 120.861C32.2345 116.166 30.4646 94.0748 33.7372 86.3115C35.1749 82.8995 39.4747 76.9309 43.2208 71.8998C46.1898 67.9093 48.8132 64.5088 49.3899 63.43C50.6863 60.9918 51.303 53.049 52.6796 52.4533C53.0214 52.3063 53.9131 52.6881 54.9135 53.5874C55.6467 54.2481 56.4429 55.1875 57.1188 56.398C57.3919 56.8848 57.6458 57.4176 57.8711 57.9923C58.9098 60.6672 59.2935 64.2854 57.8711 68.8029C57.6611 69.4673 57.4129 70.1547 57.1188 70.8612C57.0959 70.9146 57.073 70.97 57.0501 71.0254C56.4945 72.3409 55.7899 73.7232 54.9135 75.1724C54.8639 75.2526 54.8143 75.3347 54.7646 75.4168C54.7646 75.4168 54.5546 75.8063 54.2472 76.4039C53.241 78.3534 51.1751 82.5291 51.7822 82.8747C51.8586 82.9186 51.9751 82.9033 52.1412 82.8155C52.6854 82.531 53.6591 81.9696 54.9135 81.2288C55.578 80.8355 56.3207 80.3944 57.1188 79.9152C57.3632 79.7682 57.6152 79.6193 57.8711 79.4646C59.9828 78.1949 62.4096 76.719 64.7752 75.2717C65.7662 74.6665 66.7457 74.065 67.687 73.4903C68.1548 73.2039 68.6111 72.9232 69.0541 72.6502C69.4951 72.3791 69.9228 72.1175 70.3352 71.8616C70.6044 71.6974 70.8679 71.5351 71.1219 71.3786C71.1562 71.3576 71.1906 71.3366 71.225 71.3156C73.8102 69.7232 75.5859 68.6253 75.5859 68.6253C75.5859 68.6253 75.626 68.612 75.7043 68.589C76.067 68.4783 77.2394 68.1232 78.9692 67.6115C79.6107 67.4224 80.3287 67.2105 81.1115 66.9814C81.6327 66.8286 82.1826 66.6683 82.7573 66.5021C83.5363 66.2749 84.3612 66.0382 85.2204 65.7938C86.1903 65.515 87.2042 65.2267 88.2524 64.9327C88.3879 64.8945 88.5254 64.8563 88.661 64.82C89.4171 64.6081 90.1865 64.3923 90.9674 64.1785C90.9865 64.1728 91.0075 64.167 91.0285 64.1632C93.4324 63.5007 95.9317 62.8305 98.3852 62.1985C98.7422 62.1069 99.0974 62.0171 99.4525 61.9255C101.331 61.4501 103.17 61.0014 104.9 60.608C105.152 60.5489 105.402 60.4916 105.65 60.4381C106.128 60.3312 106.595 60.2281 107.052 60.1307C111.775 59.1226 115.346 58.6376 116.123 59.2391C118.387 60.9975 116.396 67.3022 107.052 71.7146C106.601 71.9285 106.133 72.1366 105.65 72.339C105.406 72.4421 105.154 72.5433 104.9 72.6426C103.867 73.0492 102.761 73.433 101.576 73.7862C100.386 74.1357 99.1165 74.4621 97.7628 74.7543Z" fill="#FEC1A0"/>
<path d="M64.443 137.044C62.7838 137.966 61.3155 139.198 60.1222 140.676C61.0979 134.921 54.3026 131.902 51.072 131.902C47.8433 131.902 44.8151 128.773 43.3029 127.765C41.7888 126.755 37.046 125.747 32.8073 127.261C30.56 128.065 25.0115 137.346 20.2897 145.898H7.46094C14.4376 138.415 24.2287 127.585 28.9447 120.855C32.2345 116.16 30.4646 94.069 33.7372 86.3057C35.1749 82.8937 39.4747 76.9251 43.2208 71.894C43.4747 72.8143 43.4767 73.7003 42.9955 74.3781C41.2809 76.801 38.858 82.5519 35.9329 87.0942C33.0059 91.6346 32.9562 113.899 34.7033 117.791C36.519 121.836 42.795 121.306 48.0419 126.266C50.7054 128.786 56.2157 130.186 58.7379 130.994C60.7236 131.629 63.391 135.44 64.443 137.044Z" fill="#F09D70"/>
<path d="M94.0946 122.921C92.7772 122.251 91.4655 121.604 90.3695 121.103C86.5452 119.358 67.3697 121.254 64.4446 121.103C61.5176 120.952 47.5146 118.453 51.3237 113.063C55.3448 107.371 53.5805 86.3535 51.7132 82.9052C54.0865 81.6584 65.1263 75.0636 71.2304 71.306L99.9181 71.8903L101.583 73.7767C99.7138 74.3361 97.6498 74.8211 95.3815 75.2087L101.249 101.038L108.264 96.6429C108.264 96.6429 111.082 98.4663 111.26 100.616C111.876 108.085 106.257 113.999 94.0946 122.921Z" fill="#F09D70"/>
<path d="M102.33 27.8363H59.8299C58.1783 27.8363 56.8398 29.1767 56.8398 30.8282V111.792C56.8398 113.443 58.1783 114.782 59.8299 114.782H102.33C103.981 114.782 105.322 113.443 105.322 111.792V30.8282C105.322 29.1767 103.981 27.8363 102.33 27.8363Z" fill="white"/>
<path d="M101.149 32.3271H93.4489C93.2064 32.3271 93.0078 32.1304 93.0078 31.886V31.8115C93.0078 31.5691 93.2045 31.3705 93.4489 31.3705H101.149C101.392 31.3705 101.59 31.5671 101.59 31.8115V31.886C101.59 32.1304 101.392 32.3271 101.149 32.3271Z" fill="#D6DCFF"/>
<path d="M101.149 34.8358H93.4489C93.2064 34.8358 93.0078 34.6392 93.0078 34.3948V34.3203C93.0078 34.0778 93.2045 33.8793 93.4489 33.8793H101.149C101.392 33.8793 101.59 34.0759 101.59 34.3203V34.3948C101.59 34.6392 101.392 34.8358 101.149 34.8358Z" fill="#D6DCFF"/>
<path d="M101.149 37.3448H93.4489C93.2064 37.3448 93.0078 37.1481 93.0078 36.9037V36.8292C93.0078 36.5868 93.2045 36.3882 93.4489 36.3882H101.149C101.392 36.3882 101.59 36.5848 101.59 36.8292V36.9037C101.59 37.1481 101.392 37.3448 101.149 37.3448Z" fill="#D6DCFF"/>
<path d="M90.3108 37.3447H63.5057C62.9367 37.3447 62.4766 36.8827 62.4766 36.3156V32.432C62.4766 31.863 62.9386 31.4029 63.5057 31.4029H90.3108C90.8798 31.4029 91.3399 31.865 91.3399 32.432V36.3156C91.3399 36.8827 90.8798 37.3447 90.3108 37.3447Z" fill="#D6DCFF"/>
<path d="M89.9224 35.4946L88.7272 34.876L88.4255 34.664C88.4103 34.6545 88.3969 34.6468 88.3816 34.6392C88.5134 34.3872 88.5821 34.0969 88.5592 33.7876C88.5038 32.9914 87.8565 32.3537 87.0623 32.3079C86.1038 32.2525 85.3133 33.0468 85.3744 34.0053C85.4241 34.7881 86.0484 35.4258 86.8293 35.4908C87.2647 35.527 87.6656 35.3877 87.973 35.1356L89.4298 36.2965C89.6513 36.4321 89.9415 36.3633 90.0771 36.1399C90.2146 35.9204 90.1458 35.6301 89.9224 35.4946ZM86.9668 35.0421C86.3386 35.0421 85.8269 34.5304 85.8269 33.9022C85.8269 33.274 86.3386 32.7623 86.9668 32.7623C87.595 32.7623 88.1067 33.274 88.1067 33.9022C88.1067 34.5304 87.595 35.0421 86.9668 35.0421Z" fill="white"/>
<path d="M64.3906 35.613C64.3906 35.2349 64.6961 34.9294 65.0742 34.9294C65.4522 34.9294 65.7577 35.2349 65.7577 35.613C65.7577 35.991 65.4522 36.2965 65.0742 36.2965C64.6961 36.2965 64.3906 35.991 64.3906 35.613Z" fill="white"/>
<path d="M67.2734 35.613C67.2734 35.2349 67.5789 34.9294 67.957 34.9294C68.335 34.9294 68.6405 35.2349 68.6405 35.613C68.6405 35.991 68.335 36.2965 67.957 36.2965C67.5789 36.2965 67.2734 35.991 67.2734 35.613Z" fill="white"/>
<path d="M70.1562 35.613C70.1562 35.2349 70.4617 34.9294 70.8398 34.9294C71.2178 34.9294 71.5233 35.2349 71.5233 35.613C71.5233 35.991 71.2178 36.2965 70.8398 36.2965C70.4617 36.2965 70.1562 35.991 70.1562 35.613Z" fill="white"/>
<path d="M99.7731 41.4326H63.3698C62.0696 41.4326 61.0156 42.4866 61.0156 43.7868V64.7341C61.0156 66.0343 62.0696 67.0883 63.3698 67.0883H99.7712C101.071 67.0883 102.125 66.0343 102.125 64.7341V43.7849C102.125 42.4847 101.071 41.4326 99.7731 41.4326Z" fill="#D6DCFF"/>
<path d="M81.6993 65.2439C91.7613 65.2439 99.9181 64.584 99.9181 63.7699C99.9181 62.9558 91.7613 62.2959 81.6993 62.2959C71.6373 62.2959 63.4805 62.9558 63.4805 63.7699C63.4805 64.584 71.6373 65.2439 81.6993 65.2439Z" fill="#BBC7F9"/>
<path d="M64.756 59.6533C64.4315 59.6533 64.168 59.9168 64.168 60.2414V63.1818C64.168 63.5064 64.4315 63.7698 64.756 63.7698C65.0806 63.7698 65.3441 63.5064 65.3441 63.1818V60.2414C65.3441 59.9168 65.0806 59.6533 64.756 59.6533Z" fill="#3E2069"/>
<path d="M98.0998 59.6533C97.7752 59.6533 97.5117 59.9168 97.5117 60.2414V63.1818C97.5117 63.5064 97.7752 63.7698 98.0998 63.7698C98.4244 63.7698 98.6879 63.5064 98.6879 63.1818V60.2414C98.6879 59.9168 98.4244 59.6533 98.0998 59.6533Z" fill="#3E2069"/>
<path d="M94.5209 44.3234H68.827C67.8571 44.3234 67.1392 45.2246 67.3549 46.1697L69.3139 54.7159C69.4705 55.4013 70.0814 55.8882 70.786 55.8882H92.5638C93.2684 55.8882 93.8774 55.4013 94.0359 54.7159L95.9949 46.1697C96.2087 45.2246 95.4908 44.3234 94.5209 44.3234Z" fill="#3E2069"/>
<path d="M93.3233 45.3582H70.0294C69.1511 45.3582 68.5 46.099 68.6948 46.8742L70.4705 53.8929C70.6137 54.4562 71.1655 54.8552 71.8051 54.8552H91.5476C92.1853 54.8552 92.739 54.4562 92.8822 53.8929L94.6579 46.8742C94.8526 46.0971 94.2016 45.3582 93.3233 45.3582Z" fill="#805FC2"/>
<path d="M94.6537 46.8743C94.7855 46.3549 94.5353 45.8509 94.0924 45.5759C91.3735 51.9302 81.6913 53.135 70.4453 53.8051L70.4682 53.8949C70.6114 54.4581 71.1632 54.8572 71.8028 54.8572H91.5453C92.183 54.8572 92.7368 54.4581 92.88 53.8949L94.6537 46.8743Z" fill="#7053B7"/>
<path d="M98.6848 57.6448H64.1641C64.1641 57.1827 64.3607 56.5908 64.7521 56.144C65.7259 55.0309 67.3145 54.1431 71.3183 54.1431H91.9162C95.3721 54.1431 97.3826 55.3593 98.0967 56.2491C98.469 56.7149 98.6848 57.1827 98.6848 57.6448Z" fill="#23B5ED"/>
<path d="M98.0987 56.2509C97.6538 55.6972 96.7068 55.0175 95.2232 54.5822C95.628 54.8476 95.9297 55.1225 96.1283 55.3707C96.1321 55.3745 96.1359 55.3803 96.1397 55.3841C96.5827 55.9416 96.1779 56.7664 95.4657 56.7664H64.3665C64.2348 57.0681 64.168 57.3793 64.168 57.6466H98.6887C98.6868 57.1827 98.471 56.7149 98.0987 56.2509Z" fill="#0DA5D3"/>
<path d="M99.122 57.3527H64.0208C63.5817 57.3527 63.2266 57.7078 63.2266 58.1469V60.5928C63.2266 61.0319 63.5817 61.3871 64.0208 61.3871H99.1239C99.563 61.3871 99.9182 61.0319 99.9182 60.5928V58.1469C99.9163 57.7078 99.5611 57.3527 99.122 57.3527Z" fill="#3E2069"/>
<path d="M99.122 57.3527H64.0208C63.5817 57.3527 63.2266 57.7078 63.2266 58.1469V59.9322H99.9182V58.1469C99.9163 57.7078 99.5611 57.3527 99.122 57.3527Z" fill="white"/>
<path d="M89.9464 54.2214C87.7182 54.5155 85.5397 54.5556 83.4375 54.2214C83.8938 52.2434 83.8938 50.2634 83.4375 48.2853C85.5817 47.9225 87.7545 47.955 89.9464 48.2853C89.3927 50.3207 89.3602 52.3026 89.9464 54.2214Z" fill="white"/>
<path d="M89.9464 54.2215C87.7182 54.5155 85.5397 54.5556 83.4375 54.2215C87.6208 54.1966 88.3598 50.2119 89.9464 48.2853C89.3927 50.3207 89.3602 52.3026 89.9464 54.2215Z" fill="#E8EFFF"/>
<path d="M91.4126 54.4066C89.7572 54.6243 88.14 54.6548 86.5781 54.4066C86.918 52.9384 86.918 51.4682 86.5781 49.998C88.1705 49.7288 89.7839 49.7517 91.4126 49.998C91.0001 51.5102 90.9753 52.9823 91.4126 54.4066Z" fill="#FF595A"/>
<path d="M91.4126 54.4066C89.7572 54.6242 88.14 54.6548 86.5781 54.4066C91.4126 54.7655 90.6183 50.5268 91.4126 49.9979C91.0001 51.5101 90.9753 52.9822 91.4126 54.4066Z" fill="#FF595A"/>
<path d="M79.3605 54.2214C77.1323 54.5155 74.9537 54.5556 72.8516 54.2214C73.3079 52.2434 73.3079 50.2634 72.8516 48.2853C74.9957 47.9225 77.1686 47.955 79.3605 48.2853C78.8087 50.3207 78.7743 52.3026 79.3605 54.2214Z" fill="white"/>
<path d="M79.3605 54.2215C77.1323 54.5155 74.9537 54.5556 72.8516 54.2215C77.0349 54.1966 77.7738 50.2119 79.3605 48.2853C78.8087 50.3207 78.7743 52.3026 79.3605 54.2215Z" fill="#E8EFFF"/>
<path d="M80.8266 54.4066C79.1712 54.6243 77.554 54.6548 75.9922 54.4066C76.332 52.9384 76.332 51.4682 75.9922 49.998C77.5846 49.7288 79.198 49.7517 80.8266 49.998C80.4161 51.5102 80.3913 52.9823 80.8266 54.4066Z" fill="#FF595A"/>
<path d="M80.8266 54.4067C79.1712 54.6244 77.554 54.6549 75.9922 54.4067C80.8266 54.7657 80.0323 50.5269 80.8266 49.998C80.4161 51.5102 80.3913 52.9823 80.8266 54.4067Z" fill="#FF595A"/>
<path d="M71.0017 45.5893C70.996 45.6122 70.9883 45.6332 70.9826 45.6561C70.9673 45.7076 70.954 45.7592 70.9406 45.8107C70.931 45.847 70.9215 45.8852 70.912 45.9215C70.9043 45.9482 70.8986 45.973 70.8929 45.9998C70.889 46.0112 70.8871 46.0208 70.8852 46.0322C70.8318 46.2461 70.7878 46.4599 70.7516 46.6719C70.7286 46.7998 70.7096 46.9277 70.6924 47.0537C70.6905 47.0709 70.6886 47.0881 70.6866 47.1034C70.6599 47.3115 70.6408 47.5196 70.6294 47.7239C70.6236 47.8327 70.6179 47.9416 70.616 48.0504C70.616 48.0809 70.6141 48.1115 70.6141 48.1439C70.6122 48.3463 70.6179 48.5449 70.6294 48.7397C70.6294 48.7435 70.6294 48.7492 70.6294 48.753C70.6313 48.7817 70.6332 48.8103 70.6351 48.8409C70.637 48.8752 70.6408 48.9077 70.6427 48.9401C70.6446 48.9745 70.6485 49.007 70.6523 49.0394C70.6561 49.0719 70.6599 49.1062 70.6637 49.1387C70.6771 49.2609 70.6943 49.3812 70.7134 49.4996C70.6924 49.5187 70.6847 49.5511 70.7096 49.5759C70.721 49.5874 70.7267 49.5989 70.7325 49.6122C70.7344 49.6256 70.7382 49.639 70.7401 49.6542H70.742C70.7439 49.6886 70.7363 49.7249 70.7229 49.7554C70.6962 49.8222 70.6485 49.8795 70.6122 49.9425C70.5377 50.0705 70.5244 50.227 70.5855 50.3645C70.6007 50.397 70.6332 50.4199 70.6695 50.4084C70.6752 50.4065 70.6809 50.4046 70.6866 50.4008C70.7191 50.3779 70.721 50.3416 70.7057 50.3072C70.6771 50.2442 70.6695 50.1697 70.6828 50.1029C70.6981 50.0304 70.7382 49.9693 70.7764 49.9063C70.8203 49.8337 70.8566 49.7421 70.8528 49.6561C70.9578 49.66 71.0647 49.6638 71.1716 49.6657C71.1506 49.7344 71.1067 49.8051 71.0781 49.8509C71.0112 49.9635 70.973 50.08 70.9616 50.2098C70.9387 50.4905 71.0437 50.7578 71.1812 50.9965C71.1812 51.0022 71.1793 51.0099 71.1831 51.0156C71.1964 51.0461 71.2098 51.0595 71.2404 51.0748C71.3053 51.1072 71.3702 51.0347 71.3339 50.9736C71.1659 50.6967 71.0227 50.3721 71.1201 50.0437C71.1583 49.9139 71.2633 49.8032 71.2785 49.6676C71.3912 49.6714 71.5038 49.6733 71.6165 49.6771C71.6509 49.7993 71.6146 49.9387 71.5859 50.0571C71.5649 50.1411 71.5458 50.227 71.542 50.3149C71.5382 50.3989 71.5458 50.5172 71.6089 50.5764C71.647 50.6127 71.7196 50.5822 71.7139 50.5268C71.71 50.4791 71.6833 50.4351 71.6795 50.3874C71.6738 50.3416 71.6757 50.2939 71.6814 50.248C71.6929 50.1564 71.7215 50.0666 71.7368 49.975C71.754 49.8795 71.7578 49.7726 71.7291 49.679C71.7711 49.681 71.8112 49.681 71.8532 49.6829C71.8933 49.6829 71.9334 49.6848 71.9754 49.6848C71.9583 49.7211 71.9468 49.7592 71.9392 49.7993C71.9239 49.8776 71.9277 49.9616 71.9373 50.0323C71.9506 50.1297 71.9774 50.2232 72.0232 50.311C72.0461 50.355 72.0785 50.395 72.1015 50.4409C72.1206 50.481 72.1072 50.5172 72.1148 50.5592C72.1244 50.5974 72.1721 50.6089 72.2027 50.5917C72.2886 50.5421 72.2466 50.418 72.2084 50.3511C72.1645 50.2709 72.1167 50.2003 72.0881 50.1125C72.0728 50.0628 72.0633 50.0113 72.0575 49.9597C72.0537 49.9215 72.0518 49.8833 72.0537 49.8452C72.0537 49.7955 72.0575 49.7344 72.0805 49.6867C72.279 49.6905 72.4776 49.6943 72.6781 49.6981C72.6762 49.8833 72.5425 50.1048 72.5234 50.2652C72.512 50.355 72.5177 50.4447 72.5349 50.5344C72.5406 50.5669 72.5502 50.5993 72.5616 50.6318C72.596 50.7349 72.6609 50.8781 72.7602 50.9335C72.8003 50.9545 72.8576 50.922 72.8576 50.8781C72.8576 50.8705 72.8556 50.8628 72.8537 50.8552C72.827 50.796 72.7793 50.7502 72.7468 50.6929C72.7163 50.6375 72.6914 50.5764 72.6762 50.5153C72.6437 50.3855 72.6533 50.2538 72.6934 50.1277C72.7335 49.9979 72.7946 49.8719 72.7907 49.7344C72.7907 49.723 72.7888 49.7134 72.7888 49.702C72.9072 49.7039 73.0256 49.7058 73.144 49.7077C73.1153 49.7783 73.0848 49.8471 73.0733 49.9234C73.0485 50.0762 73.0657 50.2671 73.1573 50.397C73.1993 50.4581 73.312 50.4122 73.2795 50.3397C73.2432 50.2595 73.207 50.1869 73.1955 50.0972C73.186 50.0151 73.1917 49.9349 73.2146 49.8566C73.2299 49.807 73.249 49.7592 73.2662 49.7096C73.375 49.7115 73.4838 49.7134 73.5926 49.7134C73.5869 49.8051 73.5927 49.8967 73.6079 49.9864C73.6289 50.1029 73.6786 50.2041 73.7244 50.311C73.7454 50.3588 73.7664 50.4141 73.7511 50.4676C73.7397 50.5077 73.7091 50.5287 73.6824 50.5592C73.6557 50.5898 73.6728 50.6337 73.7091 50.6433C73.8103 50.6719 73.8848 50.5631 73.8981 50.4771C73.9172 50.3626 73.86 50.2633 73.8122 50.1621C73.7645 50.0609 73.7339 49.9483 73.7206 49.8356C73.7148 49.7955 73.7129 49.7535 73.7129 49.7134C73.8943 49.7153 74.0757 49.7172 74.259 49.7172C74.2647 49.8089 74.2208 49.9024 74.175 49.9884C74.1024 50.122 74.0299 50.2824 74.0986 50.4313C74.1406 50.523 74.2666 50.4619 74.2227 50.3721C74.154 50.2328 74.2819 50.0666 74.3316 49.9425C74.3583 49.8738 74.3774 49.7917 74.3717 49.7172C74.4977 49.7172 74.6237 49.7172 74.7497 49.7172C74.7554 49.7726 74.7382 49.8356 74.7172 49.8795C74.6638 49.9922 74.6027 50.0915 74.5817 50.2156C74.5607 50.3359 74.5683 50.46 74.5989 50.5783C74.6275 50.6853 74.6829 50.8151 74.7688 50.8877C74.8375 50.9449 74.912 50.8476 74.8662 50.7941C74.8318 50.7368 74.7898 50.6872 74.7612 50.6261C74.7344 50.5688 74.7172 50.5077 74.7077 50.4447C74.6886 50.3129 74.7077 50.1812 74.7612 50.0609C74.8108 49.954 74.8795 49.8394 74.8585 49.7172C74.9349 49.7172 75.0132 49.7172 75.0896 49.7172C75.0857 49.8108 75.0571 49.9101 75.0399 49.9864C75.0208 50.0724 75.0132 50.1583 75.0323 50.2442C75.0476 50.3149 75.0934 50.4084 75.164 50.4351C75.1927 50.4466 75.2232 50.4447 75.2442 50.4218C75.2633 50.4008 75.269 50.3626 75.2499 50.3397C75.227 50.3091 75.1965 50.2881 75.1793 50.2538C75.1621 50.2194 75.1545 50.1793 75.1526 50.1392C75.1468 50.0514 75.1717 49.9655 75.1869 49.8776C75.1965 49.8242 75.2003 49.7688 75.1965 49.7153C75.269 49.7153 75.3397 49.7153 75.4103 49.7134C75.4409 49.7688 75.4657 49.8261 75.481 49.8833C75.5153 50.0132 75.4982 50.1468 75.4867 50.2786C75.4753 50.397 75.4752 50.5115 75.5077 50.628C75.5325 50.7139 75.5898 50.8552 75.691 50.8705C75.733 50.8762 75.7712 50.8418 75.7578 50.7979C75.7406 50.7464 75.6948 50.7139 75.67 50.6662C75.6414 50.6146 75.628 50.5554 75.6204 50.5001C75.6032 50.3817 75.6127 50.2595 75.6146 50.1411C75.6165 50.0456 75.6146 49.9502 75.5898 49.8566C75.5841 49.8318 75.5764 49.807 75.565 49.7822C75.5421 49.7268 75.5134 49.681 75.481 49.639C75.4218 49.4996 75.3664 49.3583 75.3168 49.2113C75.2996 49.1635 75.2843 49.1139 75.269 49.0642C75.2538 49.0146 75.2385 48.965 75.2251 48.9153C75.1678 48.7148 75.1182 48.5086 75.0781 48.2986C75.0686 48.2451 75.059 48.1936 75.0495 48.1401C75.0399 48.0867 75.0323 48.0332 75.0246 47.9797C74.9979 47.7907 74.9769 47.5979 74.9635 47.4031C74.9578 47.3344 74.954 47.2657 74.9521 47.195C74.9502 47.1625 74.9502 47.1301 74.9483 47.0995C74.9464 47.0652 74.9464 47.0308 74.9445 46.9964C74.9406 46.7807 74.9445 46.5592 74.9578 46.3377C74.9597 46.29 74.9635 46.2423 74.9674 46.1945C74.9674 46.1869 74.9693 46.1792 74.9693 46.1716C74.9712 46.1411 74.9731 46.1086 74.9769 46.0781C74.9807 46.0399 74.9845 46.0036 74.9884 45.9654C75.0094 45.7573 75.038 45.5473 75.0743 45.3372C75.0838 45.2819 75.0934 45.2284 75.1048 45.173C75.1106 45.1406 75.1163 45.11 75.1239 45.0776C75.1278 45.0546 75.1335 45.0336 75.1373 45.0107C75.1449 44.9745 75.1526 44.9382 75.1602 44.9019C75.2003 44.7129 75.248 44.52 75.3034 44.3291C75.0762 44.3119 74.8471 44.2966 74.618 44.2852C74.5091 44.2795 74.4022 44.2756 74.2934 44.2718C74.2265 44.2699 74.1578 44.2661 74.091 44.2642C74.0471 44.2623 74.0012 44.2623 73.9573 44.2604C73.8008 44.2565 73.6423 44.2546 73.4857 44.2546C73.4361 44.2546 73.3845 44.2546 73.333 44.2546C73.2852 44.2546 73.2375 44.2546 73.1898 44.2546C73.1573 44.2546 73.123 44.2546 73.0905 44.2565C73.0084 44.2565 72.9244 44.2585 72.8423 44.2604C72.7506 44.2623 72.6609 44.2642 72.5692 44.268C72.5215 44.2699 72.4719 44.2699 72.4241 44.2718C72.3669 44.2737 72.3077 44.2756 72.2504 44.2775C72.2313 44.2775 72.2103 44.2795 72.1912 44.2795C72.0938 44.2833 71.9964 44.289 71.8991 44.2947C71.8972 44.2947 71.8953 44.2947 71.8953 44.2947C71.7941 44.3005 71.6929 44.3062 71.5917 44.3138C71.5478 44.3157 71.5038 44.3196 71.4599 44.3234C71.437 44.3768 71.4141 44.4322 71.3912 44.4876C71.374 44.5315 71.3549 44.5754 71.3377 44.6193C71.3263 44.6499 71.3129 44.6804 71.3015 44.711C71.29 44.7396 71.2785 44.7702 71.2671 44.7988C71.2499 44.8427 71.2327 44.8885 71.2174 44.9344C71.1353 45.1578 71.0647 45.3735 71.0017 45.5893Z" fill="#23B5ED"/>
<path d="M71.3886 44.4952C71.3275 44.6441 71.2683 44.793 71.2148 44.9401C72.4425 45.0813 73.7294 45.2188 75.0755 45.3448C75.1003 45.1997 75.129 45.0546 75.1595 44.9076C73.844 44.7778 72.5857 44.6365 71.3886 44.4952Z" fill="white"/>
<path d="M71.0012 45.5893C70.9573 45.7363 70.9191 45.8852 70.8828 46.0303C72.1831 46.164 73.5406 46.29 74.9554 46.3988C74.9631 46.2576 74.9745 46.1163 74.9879 45.975C73.6017 45.8585 72.2709 45.7268 71.0012 45.5893Z" fill="white"/>
<path d="M70.7485 46.6699C70.7237 46.815 70.7008 46.9601 70.6836 47.1033C72.0545 47.2236 73.4808 47.3306 74.9624 47.4146C74.9529 47.2809 74.9471 47.1453 74.9452 47.0079C73.4903 46.9124 72.0908 46.7959 70.7485 46.6699Z" fill="white"/>
<path d="M70.6227 47.7239C70.6151 47.8652 70.6094 48.0045 70.6094 48.142C72.049 48.2413 73.5421 48.3215 75.0887 48.3731C75.0638 48.247 75.0409 48.1191 75.0218 47.9893C73.5001 47.9244 72.0337 47.8327 70.6227 47.7239Z" fill="white"/>
<path d="M70.625 48.7396C70.6326 48.8733 70.646 49.0069 70.6613 49.1387C72.1658 49.2112 73.7238 49.2571 75.3334 49.2685C75.2933 49.152 75.2551 49.0337 75.2208 48.9134C73.636 48.8847 72.1047 48.8236 70.625 48.7396Z" fill="white"/>
<path d="M68.664 60.7589C68.4731 60.7589 68.3203 60.9136 68.3203 61.1026V63.9093C68.3203 64.1002 68.475 64.253 68.664 64.253C68.853 64.253 69.0077 64.0983 69.0077 63.9093V61.1026C69.0077 60.9136 68.853 60.7589 68.664 60.7589Z" fill="white"/>
<path d="M94.4648 60.7589C94.2738 60.7589 94.1211 60.9136 94.1211 61.1026V63.9093C94.1211 64.1002 94.2758 64.253 94.4648 64.253C94.6538 64.253 94.8085 64.0983 94.8085 63.9093V61.1026C94.8085 60.9136 94.6538 60.7589 94.4648 60.7589Z" fill="white"/>
<path d="M93.6027 58.9698H69.5356C68.6993 58.9698 68.0234 59.6477 68.0234 60.482C68.0234 60.6692 68.1762 60.8219 68.3633 60.8219H94.777C94.9641 60.8219 95.1168 60.6692 95.1168 60.482C95.1168 59.6457 94.439 58.9698 93.6027 58.9698Z" fill="#FF595A"/>
<path d="M94.0705 59.0425C94.1545 59.2315 94.2023 59.4396 94.2023 59.6611C94.2023 59.8482 94.0495 60.001 93.8624 60.001H68.1017C68.0502 60.1518 68.0234 60.3141 68.0234 60.4821C68.0234 60.6692 68.1762 60.822 68.3633 60.822H94.777C94.9641 60.822 95.1168 60.6692 95.1168 60.4821C95.1168 59.81 94.6777 59.2391 94.0705 59.0425Z" fill="#FF595A"/>
<path d="M95.1917 60.2491H67.9531C67.766 60.2491 67.6133 60.4019 67.6133 60.589V61.2802C67.6133 61.4673 67.766 61.62 67.9531 61.62H95.1917C95.3788 61.62 95.5315 61.4673 95.5315 61.2802V60.589C95.5315 60.4019 95.3788 60.2491 95.1917 60.2491Z" fill="white"/>
<path d="M95.1916 60.2491C94.8079 61.62 70.6854 61.1599 67.9531 61.62H95.1916C95.3788 61.62 95.5315 61.4673 95.5315 61.2802V60.589C95.5315 60.4019 95.3788 60.2491 95.1916 60.2491Z" fill="#E8EFFF"/>
<path d="M62.6815 79.1898C61.6734 79.1898 60.8562 80.007 60.8562 81.0151C60.8562 81.3645 60.9555 81.6929 61.1254 81.9697L60.7188 82.934L61.8701 82.6495C62.1145 82.7698 62.3875 82.8385 62.6796 82.8385C63.6878 82.8385 64.505 82.0213 64.505 81.0132C64.5069 80.0069 63.6897 79.1898 62.6815 79.1898Z" fill="#D6DCFF"/>
<path d="M102.044 80.0891H67.8059C67.5997 80.0891 67.4336 79.923 67.4336 79.7167C67.4336 79.5105 67.5997 79.3444 67.8059 79.3444H102.044C102.25 79.3444 102.416 79.5105 102.416 79.7167C102.416 79.921 102.25 80.0891 102.044 80.0891Z" fill="#D6DCFF"/>
<path d="M81.6619 82.2351H67.8059C67.5997 82.2351 67.4336 82.0689 67.4336 81.8627C67.4336 81.6565 67.5997 81.4904 67.8059 81.4904H81.6619C81.8681 81.4904 82.0342 81.6565 82.0342 81.8627C82.0342 82.0689 81.8681 82.2351 81.6619 82.2351Z" fill="#D6DCFF"/>
<path d="M88.1569 82.2351H84.0442C83.838 82.2351 83.6719 82.0689 83.6719 81.8627C83.6719 81.6565 83.838 81.4904 84.0442 81.4904H88.1569C88.3631 81.4904 88.5292 81.6565 88.5292 81.8627C88.5292 82.0689 88.3631 82.2351 88.1569 82.2351Z" fill="#D6DCFF"/>
<path d="M62.6815 85.1469C61.6734 85.1469 60.8562 85.964 60.8562 86.9722C60.8562 87.3216 60.9555 87.65 61.1254 87.9268L60.7188 88.891L61.8701 88.6066C62.1145 88.7268 62.3875 88.7956 62.6796 88.7956C63.6878 88.7956 64.505 87.9784 64.505 86.9703C64.505 85.9621 63.6897 85.1469 62.6815 85.1469Z" fill="#D6DCFF"/>
<path d="M102.044 86.046H67.8059C67.5997 86.046 67.4336 85.8799 67.4336 85.6737C67.4336 85.4675 67.5997 85.3014 67.8059 85.3014H102.044C102.25 85.3014 102.416 85.4675 102.416 85.6737C102.416 85.8799 102.25 86.046 102.044 86.046Z" fill="#D6DCFF"/>
<path d="M81.6619 88.1941H67.8059C67.5997 88.1941 67.4336 88.028 67.4336 87.8218C67.4336 87.6156 67.5997 87.4495 67.8059 87.4495H81.6619C81.8681 87.4495 82.0342 87.6156 82.0342 87.8218C82.0342 88.0261 81.8681 88.1941 81.6619 88.1941Z" fill="#D6DCFF"/>
<path d="M68.7309 71.9227L69.1834 73.3146C69.214 73.4101 69.3037 73.4731 69.403 73.4731H70.8655C71.0889 73.4731 71.1825 73.7595 71.0011 73.8894L69.8173 74.7505C69.7371 74.8097 69.7028 74.9128 69.7333 75.0082L70.1858 76.4001C70.2546 76.6121 70.0121 76.7896 69.8307 76.6579L68.6469 75.7968C68.5667 75.7376 68.456 75.7376 68.3758 75.7968L67.192 76.6579C67.0106 76.7896 66.7681 76.6121 66.8369 76.4001L67.2894 75.0082C67.3199 74.9128 67.2855 74.8097 67.2054 74.7505L66.0216 73.8894C65.8402 73.7576 65.9337 73.4731 66.1571 73.4731H67.6197C67.719 73.4731 67.8087 73.4082 67.8393 73.3146L68.2918 71.9227C68.3605 71.7108 68.6622 71.7108 68.7309 71.9227Z" fill="#FFBB00"/>
<path d="M75.0161 71.9227L75.4686 73.3146C75.4991 73.4101 75.5889 73.4731 75.6881 73.4731H77.1507C77.3741 73.4731 77.4676 73.7595 77.2863 73.8894L76.1025 74.7505C76.0223 74.8097 75.9879 74.9128 76.0185 75.0082L76.471 76.4001C76.5397 76.6121 76.2972 76.7896 76.1158 76.6579L74.9321 75.7968C74.8519 75.7376 74.7411 75.7376 74.6609 75.7968L73.4771 76.6579C73.2958 76.7896 73.0533 76.6121 73.122 76.4001L73.5745 75.0082C73.6051 74.9128 73.5707 74.8097 73.4905 74.7505L72.3067 73.8894C72.1253 73.7576 72.2189 73.4731 72.4423 73.4731H73.9048C74.0041 73.4731 74.0939 73.4082 74.1244 73.3146L74.5769 71.9227C74.6476 71.7108 74.9473 71.7108 75.0161 71.9227Z" fill="#FFBB00"/>
<path d="M81.3051 71.9227L81.7576 73.3146C81.7882 73.4101 81.8779 73.4731 81.9772 73.4731H83.4398C83.6632 73.4731 83.7567 73.7595 83.5753 73.8894L82.3915 74.7505C82.3113 74.8097 82.277 74.9128 82.3075 75.0082L82.76 76.4001C82.8288 76.6121 82.5863 76.7896 82.4049 76.6579L81.2211 75.7968C81.1409 75.7376 81.0302 75.7376 80.95 75.7968L79.7662 76.6579C79.5848 76.7896 79.3423 76.6121 79.4111 76.4001L79.8636 75.0082C79.8941 74.9128 79.8598 74.8097 79.7796 74.7505L78.5958 73.8894C78.4144 73.7576 78.508 73.4731 78.7313 73.4731H80.1939C80.2932 73.4731 80.3829 73.4082 80.4135 73.3146L80.866 71.9227C80.9347 71.7108 81.2364 71.7108 81.3051 71.9227Z" fill="#FFBB00"/>
<path d="M87.5903 71.9227L88.0428 73.3146C88.0733 73.4101 88.1631 73.4731 88.2624 73.4731H89.7249C89.9483 73.4731 90.0419 73.7595 89.8605 73.8894L88.6767 74.7505C88.5965 74.8097 88.5621 74.9128 88.5927 75.0082L89.0452 76.4001C89.1139 76.6121 88.8714 76.7896 88.6901 76.6579L87.5063 75.7968C87.4261 75.7376 87.3153 75.7376 87.2351 75.7968L86.0514 76.6579C85.87 76.7896 85.6275 76.6121 85.6962 76.4001L86.1487 75.0082C86.1793 74.9128 86.1449 74.8097 86.0647 74.7505L84.8809 73.8894C84.6996 73.7576 84.7931 73.4731 85.0165 73.4731H86.4791C86.5783 73.4731 86.6681 73.4082 86.6986 73.3146L87.1511 71.9227C87.2218 71.7108 87.5215 71.7108 87.5903 71.9227Z" fill="#FFBB00"/>
<path d="M94.1489 71.9227L94.6014 73.3146C94.6319 73.4101 94.7217 73.4731 94.821 73.4731H96.2835C96.5069 73.4731 96.6005 73.7595 96.4191 73.8894L95.2353 74.7505C95.1551 74.8097 95.1207 74.9128 95.1513 75.0082L95.6038 76.4001C95.6725 76.6121 95.43 76.7896 95.2486 76.6579L94.0649 75.7968C93.9847 75.7376 93.8739 75.7376 93.7937 75.7968L92.61 76.6579C92.4286 76.7896 92.1861 76.6121 92.2548 76.4001L92.7073 75.0082C92.7379 74.9128 92.7035 74.8097 92.6233 74.7505L91.4395 73.8894C91.2582 73.7576 91.3517 73.4731 91.5751 73.4731H93.0376C93.1369 73.4731 93.2267 73.4082 93.2572 73.3146L93.7097 71.9227C93.7785 71.7108 94.0801 71.7108 94.1489 71.9227Z" fill="#FFBB00"/>
<path d="M62.6815 99.4362C61.6734 99.4362 60.8562 100.253 60.8562 101.262C60.8562 101.611 60.9555 101.939 61.1254 102.216L60.7188 103.18L61.8701 102.896C62.1145 103.016 62.3875 103.085 62.6796 103.085C63.6878 103.085 64.505 102.268 64.505 101.26C64.5069 100.253 63.6897 99.4362 62.6815 99.4362Z" fill="#D6DCFF"/>
<path d="M102.044 100.336H67.8059C67.5997 100.336 67.4336 100.169 67.4336 99.9632C67.4336 99.757 67.5997 99.5909 67.8059 99.5909H102.044C102.25 99.5909 102.416 99.757 102.416 99.9632C102.416 100.168 102.25 100.336 102.044 100.336Z" fill="#D6DCFF"/>
<path d="M81.6619 102.482H67.8059C67.5997 102.482 67.4336 102.316 67.4336 102.109C67.4336 101.903 67.5997 101.737 67.8059 101.737H81.6619C81.8681 101.737 82.0342 101.903 82.0342 102.109C82.0342 102.316 81.8681 102.482 81.6619 102.482Z" fill="#D6DCFF"/>
<path d="M88.1569 102.482H84.0442C83.838 102.482 83.6719 102.315 83.6719 102.109C83.6719 101.903 83.838 101.737 84.0442 101.737H88.1569C88.3631 101.737 88.5292 101.903 88.5292 102.109C88.5292 102.315 88.3631 102.482 88.1569 102.482Z" fill="#D6DCFF"/>
<path d="M62.6815 105.393C61.6734 105.393 60.8562 106.211 60.8562 107.219C60.8562 107.568 60.9555 107.896 61.1254 108.173L60.7188 109.138L61.8701 108.855C62.1145 108.975 62.3875 109.044 62.6796 109.044C63.6878 109.044 64.505 108.227 64.505 107.219C64.5069 106.211 63.6897 105.393 62.6815 105.393Z" fill="#D6DCFF"/>
<path d="M102.044 106.293H67.8059C67.5997 106.293 67.4336 106.127 67.4336 105.92C67.4336 105.714 67.5997 105.548 67.8059 105.548H102.044C102.25 105.548 102.416 105.714 102.416 105.92C102.416 106.127 102.25 106.293 102.044 106.293Z" fill="#D6DCFF"/>
<path d="M81.6619 108.441H67.8059C67.5997 108.441 67.4336 108.274 67.4336 108.068C67.4336 107.862 67.5997 107.696 67.8059 107.696H81.6619C81.8681 107.696 82.0342 107.862 82.0342 108.068C82.0342 108.273 81.8681 108.441 81.6619 108.441Z" fill="#D6DCFF"/>
<path d="M68.7309 92.1693L69.1834 93.5612C69.214 93.6567 69.3037 93.7197 69.403 93.7197H70.8655C71.0889 93.7197 71.1825 94.0061 71.0011 94.1359L69.8173 94.997C69.7371 95.0562 69.7028 95.1593 69.7333 95.2548L70.1858 96.6467C70.2546 96.8586 70.0121 97.0362 69.8307 96.9045L68.6469 96.0434C68.5667 95.9842 68.456 95.9842 68.3758 96.0434L67.192 96.9045C67.0106 97.0362 66.7681 96.8586 66.8369 96.6467L67.2894 95.2548C67.3199 95.1593 67.2855 95.0562 67.2054 94.997L66.0216 94.1359C65.8402 94.0042 65.9337 93.7197 66.1571 93.7197H67.6197C67.719 93.7197 67.8087 93.6548 67.8393 93.5612L68.2918 92.1693C68.3605 91.9574 68.6622 91.9574 68.7309 92.1693Z" fill="#FFBB00"/>
<path d="M75.0161 92.1693L75.4686 93.5612C75.4991 93.6567 75.5889 93.7197 75.6881 93.7197H77.1507C77.3741 93.7197 77.4676 94.0061 77.2863 94.1359L76.1025 94.997C76.0223 95.0562 75.9879 95.1593 76.0185 95.2548L76.471 96.6467C76.5397 96.8586 76.2972 97.0362 76.1158 96.9045L74.9321 96.0434C74.8519 95.9842 74.7411 95.9842 74.6609 96.0434L73.4771 96.9045C73.2958 97.0362 73.0533 96.8586 73.122 96.6467L73.5745 95.2548C73.6051 95.1593 73.5707 95.0562 73.4905 94.997L72.3067 94.1359C72.1253 94.0042 72.2189 93.7197 72.4423 93.7197H73.9048C74.0041 93.7197 74.0939 93.6548 74.1244 93.5612L74.5769 92.1693C74.6476 91.9574 74.9473 91.9574 75.0161 92.1693Z" fill="#FFBB00"/>
<path d="M81.3051 92.1693L81.7576 93.5612C81.7882 93.6567 81.8779 93.7197 81.9772 93.7197H83.4398C83.6632 93.7197 83.7567 94.0061 83.5753 94.1359L82.3915 94.997C82.3113 95.0562 82.277 95.1593 82.3075 95.2548L82.76 96.6467C82.8288 96.8586 82.5863 97.0362 82.4049 96.9045L81.2211 96.0434C81.1409 95.9842 81.0302 95.9842 80.95 96.0434L79.7662 96.9045C79.5848 97.0362 79.3423 96.8586 79.4111 96.6467L79.8636 95.2548C79.8941 95.1593 79.8598 95.0562 79.7796 94.997L78.5958 94.1359C78.4144 94.0042 78.508 93.7197 78.7313 93.7197H80.1939C80.2932 93.7197 80.3829 93.6548 80.4135 93.5612L80.866 92.1693C80.9347 91.9574 81.2364 91.9574 81.3051 92.1693Z" fill="#FFBB00"/>
<path d="M87.5903 92.1693L88.0428 93.5612C88.0733 93.6567 88.1631 93.7197 88.2624 93.7197H89.7249C89.9483 93.7197 90.0419 94.0061 89.8605 94.1359L88.6767 94.997C88.5965 95.0562 88.5621 95.1593 88.5927 95.2548L89.0452 96.6467C89.1139 96.8586 88.8714 97.0362 88.6901 96.9045L87.5063 96.0434C87.4261 95.9842 87.3153 95.9842 87.2351 96.0434L86.0514 96.9045C85.87 97.0362 85.6275 96.8586 85.6962 96.6467L86.1487 95.2548C86.1793 95.1593 86.1449 95.0562 86.0647 94.997L84.8809 94.1359C84.6996 94.0042 84.7931 93.7197 85.0165 93.7197H86.4791C86.5783 93.7197 86.6681 93.6548 86.6986 93.5612L87.1511 92.1693C87.2218 91.9574 87.5215 91.9574 87.5903 92.1693Z" fill="#FFBB00"/>
<path d="M94.1489 92.1693L94.6014 93.5612C94.6319 93.6567 94.7217 93.7197 94.821 93.7197H96.2835C96.5069 93.7197 96.6005 94.0061 96.4191 94.1359L95.2353 94.997C95.1551 95.0562 95.1207 95.1593 95.1513 95.2548L95.6038 96.6467C95.6725 96.8586 95.43 97.0362 95.2486 96.9045L94.0649 96.0434C93.9847 95.9842 93.8739 95.9842 93.7937 96.0434L92.61 96.9045C92.4286 97.0362 92.1861 96.8586 92.2548 96.6467L92.7073 95.2548C92.7379 95.1593 92.7035 95.0562 92.6233 94.997L91.4395 94.1359C91.2582 94.0042 91.3517 93.7197 91.5751 93.7197H93.0376C93.1369 93.7197 93.2267 93.6548 93.2572 93.5612L93.7097 92.1693C93.7785 91.9574 94.0801 91.9574 94.1489 92.1693Z" fill="#FFBB00"/>
<path d="M103.98 26.1217H57.99C56.2888 26.1217 54.9141 27.5327 54.9141 29.2759V113.338C54.9141 115.081 56.2907 116.494 57.99 116.494H103.982C105.679 116.494 107.056 115.081 107.056 113.338V29.2759C107.054 27.5327 105.677 26.1217 103.98 26.1217ZM104.902 111.27C104.902 111.526 104.87 111.77 104.809 112.007C104.784 112.101 104.755 112.194 104.723 112.284C104.688 112.374 104.65 112.46 104.61 112.548C104.568 112.634 104.524 112.716 104.475 112.798C104.35 113 104.203 113.189 104.035 113.353C103.902 113.487 103.757 113.605 103.602 113.712C103.482 113.792 103.36 113.861 103.232 113.924C103.104 113.985 102.968 114.039 102.831 114.081C102.554 114.169 102.262 114.214 101.954 114.214H60.0635C58.4368 114.214 57.1174 112.895 57.1174 111.268V31.4755C57.1174 29.8468 58.4368 28.5275 60.0654 28.5275H101.95C102.917 28.5275 103.776 28.9933 104.314 29.7112C104.37 29.7857 104.423 29.8659 104.475 29.9461C104.524 30.0282 104.568 30.1103 104.61 30.1962C104.65 30.284 104.687 30.3719 104.723 30.4616C104.755 30.5514 104.784 30.643 104.809 30.7385C104.87 30.9733 104.902 31.2196 104.902 31.4755V111.27Z" fill="#7E4EC7"/>
<path d="M108.259 96.6466C108.488 96.7535 108.706 96.8719 108.91 97.0018C112.457 99.2529 112.352 104.882 106.497 106.566C100.404 108.326 89.7746 111.767 88.5049 106.749C87.8882 104.332 89.5932 102.315 92.0143 100.727C92.4706 100.425 92.9537 100.141 93.4501 99.8715C89.7823 100.129 86.8954 99.5698 86.3302 97.3263C85.7154 94.9034 87.8118 92.7669 90.7408 91.0332C91.1226 90.806 91.5198 90.5864 91.9265 90.3745C87.5197 90.9129 83.8423 90.552 83.1855 87.9821C82.5192 85.3415 84.9173 82.6875 88.4324 81.225C93.0511 79.3042 106.915 75.6402 107.642 75.6363C111.367 75.6172 112.839 76.7609 113.59 79.7261C114.231 82.2808 111.925 84.3448 108.919 85.8264C108.937 85.8303 108.954 85.8341 108.969 85.8379C109.355 85.9238 109.72 86.0346 110.057 86.172C114.785 88.0489 114.974 94.323 108.259 96.6466Z" fill="#FEC1A0"/>
<path d="M91.5024 83.14C92.3884 84.5358 92.7225 86.1854 92.5335 87.6499C92.4686 88.1482 92.0695 88.5377 91.5731 88.6103C89.8852 88.8547 86.0437 89.2136 85.6026 87.5067C84.9916 85.1372 88.459 83.3959 90.1124 82.7123C90.6184 82.5023 91.2084 82.678 91.5024 83.14Z" fill="#FED8C4"/>
<path d="M93.6197 91.8256C95.1567 93.0552 95.6168 94.9817 94.7519 96.9674C94.5992 97.3206 94.2707 97.5669 93.8889 97.6261C92.3309 97.8667 88.1723 98.3345 87.7122 96.5531C87.0649 94.048 90.981 92.2456 92.4874 91.6518C92.8693 91.501 93.3008 91.5697 93.6197 91.8256Z" fill="#FED8C4"/>
<path d="M96.3653 101.353C97.7113 102.747 98.0569 104.586 97.4765 106.266C97.3371 106.667 96.9915 106.961 96.5734 107.026C94.9848 107.268 90.895 107.711 90.4387 105.945C89.8048 103.49 93.5509 101.71 95.1204 101.08C95.55 100.908 96.0407 101.019 96.3653 101.353Z" fill="#FED8C4"/>
<path d="M108.911 97.0018C105.715 98.1169 96.852 99.9785 92.0156 100.727C92.472 100.425 92.955 100.141 93.4514 99.8715L108.26 96.6448C108.489 96.7517 108.705 96.872 108.911 97.0018Z" fill="#F09D70"/>
<path d="M110.061 86.1739C105.385 87.6021 96.8406 89.7195 90.7422 91.0351C91.1241 90.8078 91.5212 90.5883 91.9279 90.3763L108.971 85.8417C109.358 85.9238 109.723 86.0364 110.061 86.1739Z" fill="#F09D70"/>
<path d="M210.711 146.988H0.709763C0.352718 146.988 0.0625 146.698 0.0625 146.341C0.0625 145.984 0.352718 145.693 0.709763 145.693H210.711C211.068 145.693 211.359 145.984 211.359 146.341C211.359 146.698 211.068 146.988 210.711 146.988Z" fill="#573499"/>
<path d="M210.197 52.2355L168.541 51.4755C167.178 51.4507 166.086 50.3376 166.086 48.9743V34.914C166.086 33.5507 167.178 32.4376 168.541 32.4128L210.197 31.6529C211.597 31.628 212.744 32.7546 212.744 34.1541V49.7361C212.742 51.1338 211.595 52.2622 210.197 52.2355Z" fill="#FFB300"/>
<path d="M184.215 50.3834L182.172 56.8713L194.13 50.9276L184.215 50.3834Z" fill="#FFB300"/>
<path d="M172.294 39.189L171.362 41.0792L169.277 41.3809L170.786 42.853L170.431 44.9284L172.294 43.9489L174.159 44.9284L173.804 42.853L175.313 41.3809L173.228 41.0792L172.294 39.189Z" fill="white"/>
<path d="M181.387 39.2157L180.464 41.0868L178.398 41.3885L179.893 42.8453L179.54 44.9017L181.387 43.9317L183.235 44.9017L182.882 42.8453L184.377 41.3885L182.311 41.0868L181.387 39.2157Z" fill="white"/>
<path d="M189.713 39.2157L188.789 41.0868L186.723 41.3885L188.218 42.8453L187.864 44.9017L189.713 43.9317L191.561 44.9017L191.208 42.8453L192.703 41.3885L190.637 41.0868L189.713 39.2157Z" fill="white"/>
<path d="M198.037 39.2157L197.113 41.0868L195.047 41.3885L196.542 42.8453L196.189 44.9017L198.037 43.9317L199.885 44.9017L199.532 42.8453L201.027 41.3885L198.961 41.0868L198.037 39.2157Z" fill="white"/>
<path d="M206.357 39.2157L205.433 41.0868L203.367 41.3885L204.862 42.8453L204.509 44.9017L206.357 43.9317L208.204 44.9017L207.85 42.8453L209.345 41.3885L207.279 41.0868L206.357 39.2157Z" fill="white"/>
<path d="M144.089 12.7543V12.7573L144.086 12.7543H144.089Z" fill="#FF595A"/>
<path d="M155.568 3.74227C153.998 2.83152 152.18 2.30455 150.239 2.28736C148.238 2.26827 146.353 2.79906 144.726 3.74227C141.534 5.59051 139.346 9.01394 139.275 12.9414C139.233 15.2307 139.9 17.3615 141.072 19.1296V19.1315L141.074 19.1334C141.57 19.7215 142.057 20.3229 142.538 20.932C145.213 24.323 147.674 28.0347 149.565 31.5861C149.796 32.0176 150.422 32.0099 150.638 31.5708C152.324 28.1722 155.274 24.4222 157.857 20.932C158.384 20.2217 158.894 19.521 159.377 18.8374C160.396 17.1821 160.988 15.2326 160.988 13.1438C160.992 9.12659 158.812 5.61915 155.568 3.74227ZM144.087 12.7562L144.085 12.7543H144.087V12.7562Z" fill="#7E4EC7"/>
<path d="M157.009 12.7524C157.009 15.1792 155.754 17.31 153.855 18.5338C152.783 19.2269 151.504 19.6279 150.131 19.6279C148.837 19.6279 147.626 19.2709 146.591 18.6484C144.592 17.4474 143.254 15.2555 143.254 12.7505C143.254 8.95473 146.332 5.87689 150.129 5.87689C153.931 5.88071 157.009 8.95855 157.009 12.7524Z" fill="white"/>
<path d="M150.591 7.93513L151.534 10.8373C151.599 11.0359 151.782 11.1695 151.992 11.1695H155.045C155.511 11.1695 155.704 11.7652 155.328 12.0402L152.859 13.835C152.691 13.9572 152.62 14.1748 152.683 14.3734L153.627 17.2756C153.77 17.7185 153.264 18.087 152.886 17.814L150.417 16.0192C150.249 15.897 150.02 15.897 149.852 16.0192L147.383 17.814C147.007 18.087 146.499 17.7185 146.642 17.2756L147.585 14.3734C147.65 14.1748 147.58 13.9591 147.41 13.835L144.941 12.0402C144.565 11.7672 144.758 11.1695 145.224 11.1695H148.277C148.485 11.1695 148.67 11.0359 148.735 10.8373L149.678 7.93513C149.819 7.49216 150.446 7.49216 150.591 7.93513Z" fill="#FFB300"/>
<path d="M147.598 36.3346C147.598 34.9332 148.734 33.7971 150.135 33.7971C151.537 33.7971 152.673 34.9332 152.673 36.3346C152.673 37.7361 151.537 38.8721 150.135 38.8721C148.734 38.8721 147.598 37.7361 147.598 36.3346Z" fill="#7E4EC7"/>
<path d="M214.242 112.003C209.394 110.72 204.424 113.609 203.141 118.457C202.694 120.141 202.753 121.84 203.223 123.396L201.711 127.809L205.944 127.618C206.964 128.509 208.197 129.187 209.595 129.558C214.442 130.841 219.412 127.952 220.695 123.104C221.978 118.256 219.09 113.286 214.242 112.003Z" fill="#805FC2"/>
<path d="M206.928 118.495C207.434 117.439 208.714 116.692 209.949 117.078C211.274 117.491 211.782 119.037 211.837 119.215C211.837 119.281 211.837 119.35 211.837 119.417C211.839 119.35 211.839 119.281 211.841 119.215C211.896 119.037 212.404 117.491 213.729 117.078C214.965 116.692 216.244 117.439 216.75 118.495C217.676 120.431 215.73 122.825 215.509 123.096C214.191 124.717 212.45 124.985 211.82 125.04C211.807 125.042 211.793 125.042 211.782 125.044C211.767 125.042 211.749 125.04 211.73 125.038C211.1 124.966 209.441 124.662 208.169 123.096C207.944 122.819 206.002 120.427 206.928 118.495Z" fill="white"/>
<path d="M21.4956 16.8538H47.4033C49.2401 16.8538 50.6931 18.4118 50.5652 20.2447L49.4062 36.8464C49.2897 38.5075 47.9093 39.7963 46.2444 39.7963H38.481L39.2104 45.8928L31.7353 39.7963H22.6527C20.9877 39.7963 19.6073 38.5075 19.4908 36.8464L18.3318 20.2447C18.2058 18.4099 19.6588 16.8538 21.4956 16.8538Z" fill="#22C2F0"/>
<path d="M34.448 20.3364L31.985 25.3274L26.4766 26.1274L30.4632 30.0129L29.5219 35.4984L34.448 32.9094L39.376 35.4984L38.4347 30.0129L42.4195 26.1274L36.913 25.3274L34.448 20.3364Z" fill="white"/>
<path d="M122.947 4.296H85.8299C83.9053 1.68976 80.8102 0 77.3219 0C71.4812 0 66.7461 4.73514 66.7461 10.5758C66.7461 16.4164 71.4812 21.1516 77.3219 21.1516C80.0751 21.1516 82.5802 20.0995 84.4628 18.3773H110.68L120.444 25.1994L117.647 18.3773H122.949C124.232 18.3773 125.271 17.3367 125.271 16.0556V6.61965C125.271 5.33658 124.23 4.296 122.947 4.296Z" fill="#FF595A"/>
<path d="M89.1183 6.32772L89.4028 7.20028C89.4219 7.25947 89.4772 7.29957 89.5403 7.29957H90.4586C90.598 7.29957 90.6572 7.47904 90.5446 7.56115L89.8018 8.10149C89.7503 8.13776 89.7293 8.20459 89.7484 8.26378L90.0329 9.13634C90.0768 9.27 89.924 9.38074 89.8095 9.29864L89.0667 8.7583C89.0152 8.72202 88.9465 8.72202 88.8968 8.7583L88.1541 9.29864C88.0414 9.38074 87.8887 9.27 87.9307 9.13634L88.2152 8.26378C88.2343 8.20459 88.2133 8.13967 88.1617 8.10149L87.419 7.56115C87.3063 7.47904 87.3636 7.29957 87.5049 7.29957H88.4233C88.4863 7.29957 88.5417 7.25947 88.5608 7.20028L88.8453 6.32772C88.8854 6.19406 89.0744 6.19406 89.1183 6.32772Z" fill="#FFB70F"/>
<path d="M93.0655 6.32779L93.35 7.20035C93.3691 7.25954 93.4245 7.29964 93.4875 7.29964H94.4059C94.5453 7.29964 94.6044 7.47911 94.4918 7.56121L93.7471 8.10346C93.6956 8.13974 93.6746 8.20657 93.6937 8.26576L93.9782 9.13832C94.0221 9.27197 93.8693 9.38272 93.7548 9.30061L93.0121 8.76027C92.9605 8.724 92.8918 8.724 92.8421 8.76027L92.0994 9.30061C91.9867 9.38272 91.834 9.27197 91.876 9.13832L92.1605 8.26576C92.1796 8.20657 92.1586 8.14165 92.107 8.10346L91.3643 7.56312C91.2516 7.48102 91.3089 7.30154 91.4502 7.30154H92.3686C92.4316 7.30154 92.487 7.26145 92.5061 7.20226L92.7906 6.3297C92.8326 6.19413 93.0216 6.19413 93.0655 6.32779Z" fill="#FFB70F"/>
<path d="M97.0089 6.32766L97.2934 7.20022C97.3125 7.25941 97.3679 7.29951 97.4309 7.29951H98.3493C98.4886 7.29951 98.5478 7.47898 98.4352 7.56108L97.6925 8.10143C97.6409 8.1377 97.6199 8.20453 97.639 8.26372L97.9235 9.13628C97.9674 9.26994 97.8147 9.38068 97.7001 9.29858L96.9574 8.75824C96.9058 8.72196 96.8371 8.72196 96.7874 8.75824L96.0447 9.29858C95.9321 9.38068 95.7793 9.26994 95.8213 9.13628L96.1058 8.26372C96.1249 8.20453 96.1039 8.13961 96.0523 8.10143L95.3096 7.56108C95.197 7.47898 95.2542 7.29951 95.3955 7.29951H96.3139C96.3769 7.29951 96.4323 7.25941 96.4514 7.20022L96.7359 6.32766C96.776 6.194 96.965 6.194 97.0089 6.32766Z" fill="#FFB70F"/>
<path d="M100.954 6.32766L101.239 7.20022C101.258 7.25941 101.313 7.29951 101.376 7.29951H102.295C102.434 7.29951 102.493 7.47898 102.38 7.56108L101.638 8.10143C101.586 8.1377 101.565 8.20453 101.584 8.26372L101.869 9.13628C101.913 9.26994 101.76 9.38068 101.645 9.29858L100.903 8.75824C100.851 8.72196 100.782 8.72196 100.733 8.75824L99.99 9.29858C99.8774 9.38068 99.7246 9.26994 99.7666 9.13628L100.051 8.26372C100.07 8.20453 100.049 8.13961 99.9977 8.10143L99.2549 7.56108C99.1423 7.47898 99.1996 7.29951 99.3408 7.29951H100.259C100.322 7.29951 100.378 7.25941 100.397 7.20022L100.681 6.32766C100.721 6.194 100.91 6.194 100.954 6.32766Z" fill="#FFB70F"/>
<path d="M105.064 6.32772L105.348 7.20028C105.367 7.25947 105.423 7.29957 105.486 7.29957H106.404C106.543 7.29957 106.603 7.47904 106.49 7.56115L105.747 8.10149C105.696 8.13776 105.675 8.20459 105.694 8.26378L105.978 9.13634C106.022 9.27 105.869 9.38074 105.755 9.29864L105.012 8.7583C104.961 8.72202 104.892 8.72202 104.842 8.7583L104.099 9.29864C103.987 9.38074 103.834 9.27 103.876 9.13634L104.16 8.26378C104.18 8.20459 104.159 8.13967 104.107 8.10149L103.364 7.56115C103.252 7.47904 103.309 7.29957 103.45 7.29957H104.369C104.432 7.29957 104.487 7.25947 104.506 7.20028L104.791 6.32772C104.831 6.19406 105.02 6.19406 105.064 6.32772Z" fill="#FFB70F"/>
<path d="M86.6331 12.6839H111.951C112.132 12.6839 112.279 12.5368 112.279 12.3555V12.3001C112.279 12.1187 112.132 11.9717 111.951 11.9717H86.6331C86.4517 11.9717 86.3047 12.1187 86.3047 12.3001V12.3555C86.3066 12.5368 86.4536 12.6839 86.6331 12.6839Z" fill="white"/>
<path d="M92.43 15.2978H117.748C117.929 15.2978 118.076 15.1507 118.076 14.9693V14.914C118.076 14.7326 117.929 14.5856 117.748 14.5856H92.43C92.2486 14.5856 92.1016 14.7326 92.1016 14.914V14.9693C92.1016 15.1507 92.2486 15.2978 92.43 15.2978Z" fill="white"/>
<path d="M113.887 12.6839H122.267C122.448 12.6839 122.595 12.5368 122.595 12.3555V12.3001C122.595 12.1187 122.448 11.9717 122.267 11.9717H113.887C113.706 11.9717 113.559 12.1187 113.559 12.3001V12.3555C113.561 12.5368 113.708 12.6839 113.887 12.6839Z" fill="white"/>
<path d="M119.617 15.2978H122.266C122.447 15.2978 122.594 15.1507 122.594 14.9693V14.914C122.594 14.7326 122.447 14.5856 122.266 14.5856H119.617C119.436 14.5856 119.289 14.7326 119.289 14.914V14.9693C119.289 15.1507 119.436 15.2978 119.617 15.2978Z" fill="white"/>
<path d="M86.6331 15.2978H89.2813C89.4627 15.2978 89.6097 15.1507 89.6097 14.9693V14.914C89.6097 14.7326 89.4627 14.5856 89.2813 14.5856H86.6331C86.4517 14.5856 86.3047 14.7326 86.3047 14.914V14.9693C86.3066 15.1507 86.4536 15.2978 86.6331 15.2978Z" fill="white"/>
<path d="M76.649 11.7748C78.9878 11.7748 80.8839 9.87882 80.8839 7.53995C80.8839 5.20108 78.9878 3.30505 76.649 3.30505C74.3101 3.30505 72.4141 5.20108 72.4141 7.53995C72.4141 9.87882 74.3101 11.7748 76.649 11.7748Z" fill="white"/>
<path d="M80.5365 11.8092C80.1948 11.5438 79.7193 11.5514 79.3833 11.8264C78.6539 12.4202 77.7222 12.7791 76.7064 12.7791C75.7231 12.7791 74.8181 12.445 74.1002 11.8817C73.7584 11.6144 73.2734 11.6183 72.945 11.9028C72.0916 12.6359 71.5703 13.6918 71.5703 15.0646V15.1887C71.5703 15.899 72.1469 16.4737 72.8572 16.4737H80.7714C81.4817 16.4737 82.0583 15.8971 82.0583 15.1887V15.0646C82.0583 13.6326 81.4759 12.5443 80.5365 11.8092Z" fill="white"/>
<path d="M210.647 66.9431C207.184 66.9431 204.375 69.7517 204.375 73.2153C204.375 74.4201 204.715 75.5447 205.303 76.4993L205.074 79.7127L207.867 78.8383C208.705 79.2526 209.649 79.4874 210.647 79.4874C214.111 79.4874 216.919 76.6788 216.919 73.2153C216.919 69.7498 214.111 66.9431 210.647 66.9431Z" fill="#FF595A"/>
<path d="M212.309 73.1521C213.283 72.1783 213.283 70.5995 212.309 69.6257C211.335 68.6519 209.757 68.6519 208.783 69.6257C207.809 70.5995 207.809 72.1783 208.783 73.1521C209.757 74.1259 211.335 74.1259 212.309 73.1521Z" fill="white"/>
<path d="M212.834 73.9027C212.634 73.7461 212.353 73.7518 212.156 73.9122C211.727 74.2616 211.179 74.4736 210.581 74.4736C210.003 74.4736 209.47 74.2769 209.048 73.9447C208.847 73.7862 208.561 73.79 208.368 73.9561C207.866 74.3876 207.559 75.0101 207.559 75.8177V75.8903C207.559 76.3084 207.898 76.6464 208.317 76.6464H212.975C213.394 76.6464 213.733 76.3065 213.733 75.8903V75.8177C213.73 74.9757 213.388 74.3342 212.834 73.9027Z" fill="white"/>
<path d="M16.2151 58.0991C22.6496 58.0991 27.8678 63.3154 27.8678 69.7518C27.8678 71.9895 27.2358 74.0783 26.1437 75.8521L28.7346 82.0078L21.3799 80.1977C19.8238 80.9691 18.0691 81.4044 16.2151 81.4044C9.7807 81.4044 4.5625 76.1881 4.5625 69.7518C4.5625 63.3154 9.77879 58.0991 16.2151 58.0991Z" fill="#FF595A"/>
<path d="M14.9712 67.5369V73.809H12.7774C11.7444 73.809 10.9062 72.9708 10.9062 71.9379V69.4118C10.9062 68.3789 11.7444 67.5369 12.7774 67.5369H14.9712Z" fill="white"/>
<path d="M22.9091 73.6677C22.1569 74.5193 15.7969 73.809 15.7969 73.809V67.5368C15.7969 67.5368 16.8375 66.9717 17.1487 65.9311C17.4561 64.8981 17.9181 63.5731 18.7143 63.785C19.5143 63.9969 19.8084 66.1507 18.8232 67.5368C18.8232 67.5368 21.9316 66.6967 22.7736 67.6151C23.5736 68.4839 23.6137 72.8696 22.9091 73.6677Z" fill="white"/>
<path d="M180.071 19.8705C180.243 20.1473 180.296 20.4796 180.216 20.808C180.111 21.2414 179.792 21.5736 179.363 21.6996L175.229 22.9044C174.801 23.0285 174.353 22.9197 174.03 22.6123C173.707 22.3049 173.579 21.8619 173.684 21.4285L174.708 17.2471C174.813 16.8136 175.132 16.4814 175.561 16.3554C175.989 16.2313 176.438 16.3401 176.758 16.6494L179.869 19.6261C179.949 19.6986 180.016 19.7807 180.071 19.8705ZM174.903 21.5316C174.916 21.5526 174.929 21.5679 174.939 21.5755C174.966 21.6022 175.042 21.6595 175.153 21.6271L178.622 20.6151C178.731 20.5827 178.765 20.4929 178.773 20.4566C178.782 20.4204 178.794 20.3249 178.712 20.2466L176.1 17.7492C176.018 17.6709 175.924 17.6862 175.888 17.6977C175.851 17.7091 175.764 17.7454 175.737 17.8561L174.878 21.3674C174.859 21.438 174.88 21.4934 174.903 21.5316Z" fill="#FF595A"/>
<path d="M12.7547 126.594C12.9265 126.871 12.98 127.203 12.8998 127.532C12.7948 127.965 12.4759 128.297 12.0463 128.423L7.91264 129.628C7.48495 129.752 7.03625 129.644 6.71358 129.336C6.3909 129.029 6.26297 128.586 6.36799 128.152L7.39139 123.971C7.4964 123.538 7.81526 123.205 8.24486 123.079C8.67255 122.955 9.12124 123.064 9.44201 123.373L12.5523 126.35C12.6325 126.423 12.6993 126.507 12.7547 126.594ZM7.58614 128.255C7.59951 128.276 7.61287 128.292 7.62242 128.299C7.64915 128.326 7.72552 128.383 7.83626 128.351L11.3055 127.339C11.4144 127.307 11.4487 127.217 11.4564 127.181C11.4659 127.144 11.4774 127.049 11.3953 126.97L8.78329 124.471C8.70119 124.393 8.60763 124.408 8.57136 124.42C8.53508 124.431 8.44725 124.467 8.42052 124.578L7.56132 128.089C7.54223 128.162 7.56323 128.219 7.58614 128.255Z" fill="#22C2F0"/>
<path d="M218.723 59.3096L220.119 57.9139C220.436 57.597 220.436 57.0833 220.119 56.7664C219.802 56.4494 219.289 56.4494 218.974 56.7664L217.578 58.1621L216.182 56.7664C215.865 56.4494 215.352 56.4494 215.035 56.7664C214.718 57.0833 214.718 57.597 215.035 57.9139L216.43 59.3096L215.038 60.7015C214.721 61.0185 214.721 61.5321 215.038 61.849C215.197 62.0075 215.405 62.0858 215.611 62.0858C215.819 62.0858 216.026 62.0075 216.184 61.849L217.576 60.4571L218.968 61.849C219.126 62.0075 219.334 62.0858 219.541 62.0858C219.749 62.0858 219.955 62.0075 220.113 61.849C220.43 61.5321 220.43 61.0185 220.113 60.7015L218.723 59.3096Z" fill="#22C2F0"/>
<path d="M56.0593 9.09991L57.4551 7.70419C57.772 7.38724 57.772 6.87363 57.4551 6.55668C57.1381 6.23973 56.6245 6.23973 56.3095 6.55668L54.9137 7.9524L53.518 6.55668C53.2011 6.23973 52.6875 6.23973 52.3705 6.55668C52.0536 6.87363 52.0536 7.38724 52.3705 7.70419L53.7662 9.09991L52.3743 10.4918C52.0574 10.8088 52.0574 11.3224 52.3743 11.6393C52.5328 11.7978 52.7409 11.8761 52.9471 11.8761C53.1553 11.8761 53.3615 11.7978 53.5199 11.6393L54.9118 10.2474L56.3037 11.6393C56.4622 11.7978 56.6703 11.8761 56.8765 11.8761C57.0847 11.8761 57.2909 11.7978 57.4493 11.6393C57.7663 11.3224 57.7663 10.8088 57.4493 10.4918L56.0593 9.09991Z" fill="#7E4EC7"/>
<path d="M204.381 142.27C202.745 142.27 201.414 140.939 201.414 139.303C201.414 137.667 202.745 136.336 204.381 136.336C206.017 136.336 207.348 137.667 207.348 139.303C207.348 140.939 206.017 142.27 204.381 142.27ZM204.381 137.432C203.348 137.432 202.508 138.272 202.508 139.305C202.508 140.338 203.348 141.178 204.381 141.178C205.414 141.178 206.254 140.338 206.254 139.305C206.254 138.272 205.414 137.432 204.381 137.432Z" fill="#FFB70F"/>
<path d="M38.9202 60.6116C37.2839 60.6116 35.9531 59.2808 35.9531 57.6445C35.9531 56.0082 37.2839 54.6774 38.9202 54.6774C40.5565 54.6774 41.8873 56.0082 41.8873 57.6445C41.8854 59.2808 40.5546 60.6116 38.9202 60.6116ZM38.9202 55.7734C37.8873 55.7734 37.0472 56.6135 37.0472 57.6464C37.0472 58.6794 37.8873 59.5195 38.9202 59.5195C39.9532 59.5195 40.7933 58.6794 40.7933 57.6464C40.7914 56.6135 39.9513 55.7734 38.9202 55.7734Z" fill="#FFB70F"/>
</svg>
